<svg width="109" height="57" viewBox="0 0 109 57" fill="none" xmlns="http://www.w3.org/2000/svg">
<g clip-path="url(#clip0_39_371)">
<path d="M41.0401 52.54C37.2401 54.91 32.7501 56.27 27.9401 56.27C23.1401 56.27 18.6601 54.91 14.8501 52.55C15.5301 52.7 16.2201 52.8 16.9501 52.88C17.2301 52.91 17.5201 52.94 17.8101 52.96C19.3001 53.06 20.8801 53.02 22.5601 52.84C23.2801 53.3 24.0701 53.66 24.8801 53.91C26.8801 54.54 29.0801 54.53 31.0801 53.89C31.8701 53.64 32.6201 53.29 33.3301 52.84C35.0301 53.03 36.6301 53.07 38.1401 52.96C38.4301 52.94 38.7201 52.91 39.0001 52.88C39.7001 52.79 40.3801 52.68 41.0401 52.54Z" fill="#314294"/>
<path d="M54.7002 8.35C51.4902 8.87 48.4702 10.52 46.5102 13.06C46.3702 13.24 46.2302 13.43 46.1102 13.62C46.0102 13.77 45.9102 13.93 45.8202 14.08C44.4202 16.44 44.1802 19.1 44.2702 21.82C44.2702 21.82 44.2702 21.82 44.2702 21.83V21.86C44.2702 21.86 44.2702 21.86 44.2702 21.87V21.88C44.2702 21.99 44.2802 22.1 44.2802 22.22C44.2802 22.22 44.2802 22.22 44.2802 22.23V22.26C44.3102 22.81 44.3402 23.37 44.3802 23.92V23.93C44.3902 24.07 44.4002 24.21 44.4102 24.34C44.4102 24.34 44.4102 24.34 44.4102 24.35C44.4302 24.62 44.4502 24.88 44.4702 25.15V25.16C44.4702 25.22 44.4802 25.29 44.4902 25.35V25.36C44.5902 26.69 44.6902 28.01 44.6802 29.3V29.34C44.6802 29.53 44.6802 29.72 44.6702 29.9C44.6702 29.95 44.6702 30 44.6602 30.05V30.08C44.6602 30.08 44.6602 30.08 44.6602 30.09C44.6402 30.61 44.6102 31.15 44.5602 31.69V31.71C44.5402 31.93 44.5202 32.15 44.4902 32.37C44.4902 32.4 44.4802 32.43 44.4802 32.46V32.47C44.2302 34.58 43.6702 36.67 42.5002 38.45C41.9402 39.31 41.2402 40.03 40.4202 40.6C40.3902 40.62 40.3702 40.63 40.3402 40.65C40.1402 40.79 39.9302 40.91 39.7202 41.03C39.6302 41.08 39.5502 41.12 39.4602 41.17C38.7602 41.53 38.0002 41.79 37.2002 41.94C37.1102 41.96 37.0202 41.97 36.9302 41.99C36.8902 42 36.8502 42.01 36.8102 42.01C36.4202 42.07 36.0202 42.11 35.6302 42.13C38.9102 38.06 40.8002 33.43 41.4102 28.3C41.4102 28.3 41.4102 28.3 41.4102 28.29C41.4102 28.27 41.4202 28.26 41.4202 28.24C41.4602 27.95 41.4902 27.65 41.5102 27.35C41.5102 27.35 41.5102 27.35 41.5102 27.34C41.5102 27.31 41.5102 27.28 41.5202 27.24C41.5702 26.64 41.6102 26.03 41.6302 25.42V25.36C41.6302 25.21 41.6302 25.06 41.6402 24.92C41.6402 24.83 41.6402 24.74 41.6402 24.64V24.48C41.6402 23.94 41.6302 23.39 41.6102 22.84C41.4602 20.49 40.9302 18.16 40.0102 15.95C38.7602 12.96 36.9502 10.13 34.8202 7.46C34.6102 7.19 34.3902 6.92 34.1702 6.66C32.2502 4.34 30.1202 2.13 27.9402 0V0.01C25.7602 2.14 23.6202 4.34 21.7202 6.66C21.5002 6.93 21.2802 7.2 21.0702 7.47C18.9402 10.14 17.1302 12.96 15.8802 15.96C14.9602 18.18 14.4302 20.5 14.2802 22.85C14.2502 23.55 14.2402 24.24 14.2502 24.93C14.2502 25.08 14.2502 25.22 14.2602 25.36V25.38C14.2602 25.53 14.2602 25.69 14.2702 25.84C14.2702 25.84 14.2702 25.84 14.2702 25.85V25.87C14.2902 26.33 14.3202 26.79 14.3602 27.24V27.25C14.3602 27.25 14.3602 27.25 14.3602 27.26C14.3602 27.38 14.3802 27.51 14.3902 27.63V27.64C14.4102 27.86 14.4302 28.08 14.4602 28.3V28.31C14.4702 28.37 14.4702 28.42 14.4802 28.47C15.1202 33.54 17.0002 38.11 20.2402 42.14C19.8402 42.12 19.4402 42.08 19.0502 42.02C19.0402 42.02 19.0202 42.02 19.0102 42.01C18.8902 41.99 18.7802 41.97 18.6702 41.95C17.8702 41.8 17.1002 41.53 16.4002 41.18C16.3402 41.15 16.2802 41.12 16.2202 41.09C15.9802 40.96 15.7502 40.82 15.5202 40.67C15.5202 40.67 15.5202 40.67 15.5202 40.66C14.6802 40.09 13.9502 39.35 13.3702 38.47C12.2402 36.75 11.6802 34.74 11.4102 32.7C11.4102 32.7 11.4102 32.7 11.4102 32.69C11.4002 32.63 11.3902 32.57 11.3902 32.51C11.3702 32.36 11.3502 32.22 11.3402 32.08C11.3402 32.08 11.3402 32.08 11.3402 32.07C11.3302 31.96 11.3202 31.85 11.3102 31.74C11.3102 31.74 11.3102 31.74 11.3102 31.73C11.2702 31.32 11.2402 30.9 11.2202 30.49V30.4C11.2202 30.28 11.2102 30.16 11.2002 30.04V30.02C11.2002 30.02 11.2002 30.02 11.2002 30.01C11.2002 29.97 11.2002 29.94 11.2002 29.9C11.1402 28.36 11.2602 26.76 11.3902 25.15C11.3902 25.13 11.3902 25.12 11.3902 25.1C11.3902 25.1 11.3902 25.1 11.3902 25.09V25.08C11.4202 24.74 11.4502 24.39 11.4702 24.04V24.03C11.4702 23.99 11.4702 23.94 11.4802 23.9C11.5302 23.22 11.5702 22.54 11.6002 21.86V21.85C11.6002 21.85 11.6002 21.85 11.6002 21.84V21.8C11.6002 21.62 11.6102 21.43 11.6102 21.25V21.2C11.6402 18.7 11.3402 16.27 10.0402 14.08C9.95021 13.93 9.86021 13.77 9.75021 13.62C9.63021 13.43 9.49021 13.25 9.35021 13.06C7.40021 10.53 4.39021 8.88 1.18021 8.35C0.320213 12.82 -0.0697872 17.01 0.0102128 20.84V20.9C0.0102128 21.12 0.0202128 21.34 0.0302128 21.57V21.59C0.0402128 21.91 0.0602128 22.23 0.0702128 22.54C0.0702128 22.54 0.0702128 22.54 0.0702128 22.55V22.56C0.0802128 22.72 0.0902128 22.87 0.100213 23.03C0.110213 23.18 0.120213 23.33 0.130213 23.48C0.130213 23.56 0.140213 23.64 0.150213 23.73V23.75C0.500213 27.89 1.44021 31.54 2.97021 34.57C3.10021 34.83 3.24021 35.09 3.37021 35.35C5.40021 39.15 8.32021 42.96 12.1202 44.42C12.3302 44.5 12.5302 44.57 12.7402 44.64C12.7902 44.66 12.8402 44.67 12.8902 44.69C13.3802 44.85 13.8902 45 14.4102 45.12C15.2202 45.31 16.0702 45.46 16.9402 45.55C17.1802 45.58 17.4202 45.6 17.6702 45.62C17.7102 45.62 17.7602 45.62 17.8002 45.63C18.1502 45.65 18.5102 45.67 18.8702 45.68H18.9102C19.3302 45.69 19.7602 45.69 20.1902 45.68C20.9502 45.66 21.7402 45.6 22.5402 45.51C23.2602 45.97 24.0502 46.33 24.8602 46.58C26.8602 47.21 29.0602 47.2 31.0602 46.56C31.8502 46.31 32.6002 45.96 33.3102 45.51C33.8402 45.57 34.3602 45.61 34.8702 45.64C35.3602 45.67 35.8502 45.68 36.3302 45.68C36.5502 45.68 36.7802 45.68 37.0002 45.67C37.3802 45.67 37.7602 45.65 38.1302 45.62C38.1502 45.62 38.1702 45.62 38.1902 45.62C38.4602 45.6 38.7202 45.57 38.9902 45.55C39.8402 45.46 40.6602 45.31 41.4502 45.13C42.0002 45 42.5302 44.85 43.0502 44.67C43.0702 44.66 43.0902 44.66 43.1102 44.65C43.3502 44.57 43.5802 44.48 43.8102 44.39C47.5802 42.92 50.4902 39.12 52.5002 35.33C52.6402 35.07 52.7802 34.81 52.9002 34.55C52.9002 34.55 52.9002 34.55 52.9002 34.54C54.4502 31.45 55.4002 27.72 55.7302 23.48V23.46C55.7302 23.42 55.7402 23.37 55.7402 23.33C55.7402 23.33 55.7402 23.33 55.7402 23.32C55.7602 23.07 55.7802 22.82 55.7902 22.56V22.54C55.8202 22.01 55.8402 21.47 55.8502 20.92V20.86C55.8602 20.49 55.8602 20.12 55.8602 19.75V19.7C55.8602 16.18 55.4702 12.37 54.7002 8.35ZM31.9602 33.85V33.89C31.9602 34.04 31.9502 34.2 31.9402 34.35C31.9102 34.89 31.8502 35.42 31.7602 35.92V35.93C31.7602 35.96 31.7502 35.99 31.7402 36.03C31.7402 36.03 31.7402 36.03 31.7402 36.04L31.6602 36.43C31.6402 36.53 31.6102 36.62 31.5802 36.72V36.73C31.0602 38.53 29.5302 39.48 27.9402 39.57C26.3902 39.48 24.8802 38.56 24.3302 36.83C24.3202 36.8 24.3102 36.77 24.3002 36.73C24.2702 36.63 24.2402 36.52 24.2202 36.42C24.2102 36.35 24.1902 36.28 24.1802 36.21C24.1602 36.12 24.1502 36.03 24.1302 35.93V35.92C24.0502 35.46 23.9902 35 23.9602 34.51C23.9602 34.51 23.9602 34.51 23.9602 34.5C23.9602 34.45 23.9502 34.4 23.9502 34.35C23.7002 30.14 25.1102 24.83 27.9502 19C30.6702 24.61 32.0702 29.72 31.9602 33.85Z" fill="#314294"/>
<path d="M51.7399 38.6699C50.5399 42.5899 48.4099 46.0899 45.5899 48.9199C45.0299 49.2699 44.4399 49.5699 43.8199 49.8099C43.5699 49.9099 43.3199 49.9999 43.0599 50.0899C41.7999 50.5199 40.4399 50.8099 38.9999 50.9699C38.7199 50.9999 38.4299 51.0299 38.1399 51.0499C36.6299 51.1599 35.0299 51.1199 33.3299 50.9299C32.6299 51.3799 31.8699 51.7299 31.0799 51.9799C29.0799 52.6199 26.8799 52.6299 24.8799 51.9999C24.0699 51.7499 23.2799 51.3899 22.5599 50.9299C20.8899 51.1199 19.3099 51.1499 17.8099 51.0499C17.5199 51.0299 17.2299 51.0099 16.9499 50.9699C15.5099 50.8199 14.1599 50.5299 12.8999 50.1099C12.6399 50.0199 12.3799 49.9299 12.1299 49.8299C11.4999 49.5799 10.8899 49.2799 10.2999 48.9099C10.2999 48.9099 10.2899 48.9099 10.2899 48.8999C7.4799 46.0699 5.3499 42.5699 4.1499 38.6699C6.1199 41.9899 8.7899 45.0899 12.1299 46.3799C12.3799 46.4699 12.6399 46.5699 12.8999 46.6599C13.4199 46.8299 13.9599 46.9799 14.5099 47.1099C15.2899 47.2899 16.1099 47.4299 16.9499 47.5199C17.2299 47.5499 17.5199 47.5799 17.8099 47.5999C18.1799 47.6199 18.5499 47.6399 18.9299 47.6499C20.0899 47.6799 21.2999 47.6199 22.5599 47.4799C23.2799 47.9399 24.0699 48.2999 24.8799 48.5499C26.8799 49.1799 29.0799 49.1699 31.0799 48.5299C31.8699 48.2799 32.6199 47.9299 33.3299 47.4799C34.5899 47.6199 35.8099 47.6799 36.9699 47.6499C37.3699 47.6499 37.7599 47.6199 38.1499 47.5999C38.4399 47.5799 38.7299 47.5499 39.0099 47.5199C39.8299 47.4299 40.6099 47.2999 41.3699 47.1199C41.9599 46.9799 42.5199 46.8199 43.0699 46.6399C43.3299 46.5499 43.5799 46.4599 43.8299 46.3599C47.1299 45.0699 49.7799 41.9799 51.7399 38.6699Z" fill="#314294"/>
<path d="M71.37 20.8398H66.96V7.02979H68.19V19.7498H71.37V20.8398Z" fill="#314294"/>
<path d="M78.8798 19.8598C78.8798 20.1498 78.7898 20.3798 78.5998 20.5698C78.4098 20.7498 78.1798 20.8398 77.8898 20.8398H74.0298C73.7398 20.8398 73.5098 20.7498 73.3198 20.5698C73.1398 20.3898 73.0498 20.1498 73.0498 19.8598V8.00979C73.0498 7.71979 73.1398 7.48979 73.3198 7.29979C73.4998 7.10979 73.7398 7.02979 74.0298 7.02979H77.8898C78.1798 7.02979 78.4098 7.11979 78.5998 7.29979C78.7898 7.47979 78.8798 7.71979 78.8798 8.00979V19.8598ZM77.6598 19.7498V8.11978H74.2798V19.7598H77.6598V19.7498Z" fill="#314294"/>
<path d="M85.8398 8.11978H83.6998V20.8398H82.4698V8.11978H80.3198V7.02979H85.8298V8.11978H85.8398Z" fill="#314294"/>
<path d="M93.0098 19.8598C93.0098 20.1498 92.9198 20.3798 92.7298 20.5698C92.5398 20.7498 92.3098 20.8398 92.0198 20.8398H88.2598C87.9698 20.8398 87.7398 20.7498 87.5498 20.5698C87.3698 20.3898 87.2798 20.1498 87.2798 19.8598V7.02979H88.5098V19.7498H91.7798V7.02979H93.0098V19.8598Z" fill="#314294"/>
<path d="M100.6 19.8598C100.6 20.1498 100.51 20.3798 100.33 20.5698C100.15 20.7498 99.9197 20.8398 99.6297 20.8398H96.1497C95.8597 20.8398 95.6297 20.7498 95.4397 20.5698C95.2497 20.3898 95.1597 20.1498 95.1597 19.8598V16.3598H96.3897V19.7598H99.3697V16.4698L95.5597 11.8598C95.2997 11.5398 95.1597 11.1898 95.1597 10.8098V8.00979C95.1597 7.71979 95.2497 7.48979 95.4397 7.29979C95.6297 7.11979 95.8597 7.02979 96.1497 7.02979H99.6297C99.9197 7.02979 100.15 7.11979 100.33 7.29979C100.51 7.47979 100.6 7.71979 100.6 8.00979V11.2198H99.3697V8.11978H96.3897V11.0298L100.22 15.6398C100.47 15.9498 100.6 16.2898 100.6 16.6698V19.8598Z" fill="#314294"/>
<path d="M75.2199 24.6699L73.3399 38.5099H72.3399L70.8399 28.0999C70.8299 27.9199 70.8199 27.6499 70.7999 27.2899C70.7999 27.4799 70.7899 27.7499 70.7599 28.0999L69.2599 38.5099H68.2599L66.3999 24.6699H67.6199L68.7899 34.6299C68.7999 34.8499 68.8099 35.1799 68.8299 35.6199C68.8199 35.3999 68.8399 35.0699 68.8699 34.6299L70.2999 24.6699H71.3499L72.7699 34.6299C72.7799 34.8499 72.7899 35.1799 72.8099 35.6199C72.8099 35.3999 72.8199 35.0699 72.8499 34.6299L74.0199 24.6699H75.2199Z" fill="#314294"/>
<path d="M82.4301 38.4799H81.2101L80.7201 35.4099H77.9801L77.4901 38.4799H76.3101V38.4399L78.7701 24.6299H79.9801L82.4301 38.4799ZM80.5701 34.3199L79.3601 26.8399L78.1401 34.3199H80.5701Z" fill="#314294"/>
<path d="M88.8398 25.7599H86.6998V38.4799H85.4698V25.7599H83.3198V24.6699H88.8298V25.7599H88.8398Z" fill="#314294"/>
<path d="M94.82 38.4799H90.29V24.6699H94.77V25.7599H91.51V30.9099H94.47V32.0099H91.51V37.3899H94.82V38.4799Z" fill="#314294"/>
<path d="M102.61 38.4799H101.32L98.75 31.0899L98.92 30.8399H101.11V25.7599H97.96V38.4799H96.73V24.6699H101.35C101.64 24.6699 101.87 24.7599 102.06 24.9399C102.24 25.1199 102.33 25.3599 102.33 25.6499V30.8899C102.33 31.5499 101.88 31.8899 100.99 31.8899C100.9 31.8899 100.77 31.8899 100.6 31.8799C100.43 31.8699 100.31 31.8699 100.23 31.8699C101.03 34.0599 101.82 36.2699 102.61 38.4799Z" fill="#314294"/>
<path d="M72.4297 49.6496C72.4297 49.9396 72.3397 50.1696 72.1497 50.3596C71.9597 50.5496 71.7297 50.6396 71.4397 50.6396H68.1797V56.1196H66.9497V42.3096H71.4297C71.7197 42.3096 71.9497 42.3996 72.1397 42.5796C72.3297 42.7596 72.4197 42.9996 72.4197 43.2896V49.6496H72.4297ZM71.2097 49.5396V43.3896H68.1897V49.5396H71.2097Z" fill="#314294"/>
<path d="M80.1001 55.1396C80.1001 55.4296 80.0101 55.6596 79.8201 55.8496C79.6301 56.0296 79.4001 56.1196 79.1101 56.1196H75.3501C75.0601 56.1196 74.8301 56.0296 74.6401 55.8496C74.4501 55.6696 74.3701 55.4296 74.3701 55.1396V42.3096H75.6001V55.0296H78.8701V42.3096H80.1001V55.1396Z" fill="#314294"/>
<path d="M87.7798 49.6496C87.7798 49.9396 87.6898 50.1696 87.4998 50.3596C87.3098 50.5496 87.0798 50.6396 86.7898 50.6396H83.5298V56.1196H82.2998V42.3096H86.7798C87.0698 42.3096 87.2998 42.3996 87.4898 42.5796C87.6798 42.7596 87.7698 42.9996 87.7698 43.2896V49.6496H87.7798ZM86.5498 49.5396V43.3896H83.5298V49.5396H86.5498Z" fill="#314294"/>
<path d="M95.19 49.6496C95.19 49.9396 95.1 50.1696 94.91 50.3596C94.72 50.5496 94.49 50.6396 94.2 50.6396H90.94V56.1196H89.71V42.3096H94.19C94.48 42.3096 94.71 42.3996 94.9 42.5796C95.09 42.7596 95.18 42.9996 95.18 43.2896V49.6496H95.19ZM93.96 49.5396V43.3896H90.94V49.5396H93.96Z" fill="#314294"/>
<path d="M101.66 56.1196H97.1299V42.3096H101.61V43.3996H98.3499V48.5496H101.31V49.6496H98.3499V55.0296H101.66V56.1196Z" fill="#314294"/>
<path d="M108.33 43.3898H106.19V56.1098H104.96V43.3898H102.81V42.2998H108.32V43.3898H108.33Z" fill="#314294"/>
</g>
<defs>
<clipPath id="clip0_39_371">
<rect width="108.33" height="56.27" fill="white"/>
</clipPath>
</defs>
</svg>
