<svg width="123" height="24" viewBox="0 0 123 24" fill="none" xmlns="http://www.w3.org/2000/svg">
<path d="M78.3029 23.0403C78.364 23.1202 78.438 23.1895 78.5219 23.2452C78.7225 23.3835 78.9623 23.4536 79.2058 23.4452C79.7058 23.4452 79.9668 23.1882 79.9668 22.8272C79.9668 21.9762 78.1598 22.4422 78.1598 21.2582C78.1681 21.1278 78.2027 21.0004 78.2616 20.8838C78.3205 20.7671 78.4024 20.6636 78.5024 20.5795C78.6024 20.4954 78.7185 20.4324 78.8435 20.3944C78.9685 20.3564 79.1 20.3441 79.2299 20.3583C79.4884 20.3556 79.7418 20.4301 79.9578 20.5722C80.0496 20.6319 80.1327 20.7039 80.2048 20.7862L79.9668 21.0243C79.9121 20.9616 79.85 20.9059 79.7819 20.8583C79.6183 20.7496 79.4263 20.6915 79.2299 20.6913C78.7739 20.6913 78.5168 20.9622 78.5168 21.2622C78.5168 22.1182 80.3239 21.6472 80.3239 22.8312C80.3239 23.3782 79.9238 23.7823 79.2058 23.7823C78.9052 23.7885 78.6099 23.7022 78.3599 23.5353C78.2557 23.4675 78.164 23.3823 78.0889 23.2832L78.3029 23.0403Z" fill="#111A41"/>
<path d="M82.8658 23.3063C82.7928 23.3965 82.708 23.4765 82.6138 23.5443C82.4117 23.6961 82.1665 23.7795 81.9138 23.7823C81.6046 23.7733 81.311 23.6441 81.0955 23.4222C80.8799 23.2003 80.7593 22.9031 80.7593 22.5938C80.7593 22.2844 80.8799 21.9872 81.0955 21.7653C81.311 21.5434 81.6046 21.4142 81.9138 21.4053C82.1607 21.4058 82.4009 21.4857 82.5989 21.6332C82.6874 21.6986 82.7685 21.7734 82.8408 21.8563L82.6038 22.0942C82.5525 22.0244 82.4936 21.9607 82.4279 21.9042C82.2839 21.783 82.1021 21.7158 81.9138 21.7142C81.6941 21.7339 81.4897 21.835 81.3408 21.9978C81.1919 22.1606 81.1094 22.3732 81.1094 22.5938C81.1094 22.8143 81.1919 23.0269 81.3408 23.1897C81.4897 23.3525 81.6941 23.4536 81.9138 23.4733C82.1058 23.469 82.2911 23.4023 82.4418 23.2833C82.5113 23.2281 82.5735 23.1642 82.6268 23.0933L82.8658 23.3063Z" fill="#111A41"/>
<path d="M85.2659 23.3063C85.1972 23.3973 85.1153 23.4775 85.0229 23.5443C84.8184 23.6974 84.5703 23.7808 84.3149 23.7823C84.0096 23.7704 83.7207 23.6415 83.5079 23.4224C83.295 23.2033 83.1745 22.9107 83.1714 22.6052C83.1684 22.2998 83.2829 22.0049 83.4913 21.7815C83.6997 21.5581 83.9859 21.4234 84.2908 21.4053C84.4389 21.4039 84.5857 21.4328 84.7222 21.4902C84.8587 21.5477 84.982 21.6325 85.0845 21.7394C85.187 21.8463 85.2665 21.973 85.3182 22.1117C85.3698 22.2505 85.3925 22.3984 85.3848 22.5463C85.3832 22.5876 85.3787 22.6287 85.3709 22.6693L85.3609 22.7173H83.5069C83.5221 22.9222 83.6134 23.114 83.763 23.2548C83.9126 23.3957 84.1095 23.4754 84.3149 23.4783C84.5132 23.477 84.7055 23.4102 84.8619 23.2883C84.933 23.2332 84.9967 23.1694 85.0518 23.0983L85.2659 23.3063ZM85.0518 22.4273C85.0362 22.2352 84.9497 22.0557 84.809 21.9239C84.6683 21.7921 84.4836 21.7174 84.2908 21.7143C84.0966 21.7202 83.9109 21.7953 83.7672 21.926C83.6234 22.0567 83.5311 22.2345 83.5069 22.4273H85.0518Z" fill="#111A41"/>
<path d="M85.978 21.4524H86.3101V21.7854C86.3605 21.7133 86.4216 21.6493 86.4911 21.5954C86.6314 21.4881 86.7994 21.4232 86.9753 21.4085C87.1513 21.3938 87.3279 21.4298 87.484 21.5123C87.6402 21.5948 87.7694 21.7203 87.8564 21.8739C87.9435 22.0276 87.9847 22.203 87.9751 22.3794V23.7344H87.6421V22.3794C87.6498 22.2941 87.6395 22.2082 87.6118 22.1271C87.5841 22.0461 87.5397 21.9718 87.4814 21.909C87.4231 21.8463 87.3522 21.7965 87.2734 21.763C87.1946 21.7294 87.1097 21.7129 87.024 21.7143C86.9262 21.7137 86.8292 21.7333 86.7393 21.7719C86.6493 21.8105 86.5682 21.8672 86.5012 21.9385C86.4342 22.0099 86.3826 22.0943 86.3497 22.1865C86.3168 22.2787 86.3033 22.3767 86.3101 22.4743V23.7344H85.978V21.4524Z" fill="#111A41"/>
<path d="M88.8767 21.7614H88.4487V21.4523H88.7097C88.8387 21.4523 88.8997 21.3713 88.8997 21.2143V20.6953H89.2097V21.4563H89.7097V21.7653H89.2097V23.1203C89.2097 23.3633 89.3277 23.4773 89.5187 23.4773C89.5926 23.4774 89.6661 23.4663 89.7367 23.4443C89.7707 23.4293 89.8036 23.4203 89.8276 23.4063V23.7143C89.7986 23.7293 89.7657 23.7383 89.7327 23.7533C89.6584 23.7755 89.5812 23.7866 89.5037 23.7863C89.4162 23.7931 89.3283 23.7802 89.2465 23.7486C89.1646 23.717 89.0909 23.6674 89.0308 23.6035C88.9706 23.5396 88.9255 23.463 88.8988 23.3794C88.8721 23.2958 88.8646 23.2072 88.8767 23.1203V21.7614Z" fill="#111A41"/>
<path d="M94.199 21.5475H93.771V21.2386H94.032C94.161 21.2386 94.2229 21.1575 94.2229 21.0005V20.4775H94.532V21.2386H95.032V21.5475H94.532V22.9026C94.532 23.1456 94.6509 23.2596 94.8409 23.2596C94.9152 23.2598 94.989 23.2486 95.0599 23.2266C95.0906 23.2155 95.1206 23.2029 95.1499 23.1886V23.4976C95.1209 23.5116 95.0879 23.5216 95.0499 23.5356C94.9761 23.5583 94.8991 23.5694 94.8219 23.5685C94.7343 23.5755 94.6463 23.5628 94.5643 23.5312C94.4824 23.4996 94.4085 23.45 94.3483 23.3861C94.288 23.3222 94.2429 23.2456 94.2162 23.1619C94.1895 23.0782 94.1819 22.9896 94.194 22.9026L94.199 21.5475Z" fill="#111A41"/>
<path d="M95.7427 20.1953H96.0757V21.5743C96.1261 21.5023 96.1872 21.4382 96.2567 21.3843C96.3969 21.2769 96.5649 21.212 96.7408 21.1972C96.9168 21.1824 97.0934 21.2184 97.2495 21.301C97.4056 21.3835 97.5348 21.5091 97.6217 21.6628C97.7086 21.8166 97.7496 21.992 97.7397 22.1683V23.5244H97.4077V22.1653C97.4155 22.08 97.4051 21.9939 97.3773 21.9128C97.3496 21.8317 97.3051 21.7573 97.2467 21.6946C97.1883 21.6318 97.1174 21.5821 97.0385 21.5486C96.9595 21.5152 96.8744 21.4987 96.7887 21.5003C96.6908 21.4996 96.5938 21.5193 96.5038 21.5579C96.4138 21.5966 96.3327 21.6534 96.2657 21.7249C96.1988 21.7963 96.1473 21.8809 96.1146 21.9732C96.0819 22.0655 96.0686 22.1637 96.0757 22.2614V23.5213H95.7427V20.1953Z" fill="#111A41"/>
<path d="M100.425 23.0954C100.357 23.1861 100.275 23.266 100.183 23.3324C99.9781 23.4853 99.7297 23.5686 99.4741 23.5704C99.1688 23.5583 98.8799 23.4293 98.6672 23.2101C98.4544 22.9909 98.3341 22.6983 98.3311 22.3929C98.3282 22.0874 98.4428 21.7925 98.6513 21.5693C98.8598 21.346 99.1461 21.2114 99.451 21.1934C99.599 21.192 99.7458 21.2209 99.8823 21.2784C100.019 21.3358 100.142 21.4206 100.244 21.5275C100.347 21.6344 100.426 21.7612 100.478 21.9C100.529 22.0387 100.552 22.1866 100.544 22.3345C100.543 22.3758 100.538 22.4169 100.53 22.4574L100.52 22.5054H98.6659C98.6814 22.7102 98.7729 22.9018 98.9224 23.0427C99.0719 23.1835 99.2687 23.2632 99.4741 23.2664C99.6724 23.2657 99.8649 23.1989 100.021 23.0765C100.092 23.0216 100.156 22.9578 100.211 22.8865L100.425 23.0954ZM100.211 22.2154C100.195 22.0235 100.109 21.8442 99.9684 21.7124C99.828 21.5806 99.6436 21.5058 99.451 21.5024C99.2567 21.5085 99.0709 21.5836 98.9271 21.7143C98.7832 21.845 98.6906 22.0226 98.6659 22.2154H100.211Z" fill="#111A41"/>
<path d="M104.488 20.4062H104.797L106.176 22.2133L107.555 20.4062H107.864V23.7343H107.507V21.0243L106.176 22.7833L104.844 21.0243V23.7343H104.488V20.4062Z" fill="#111A41"/>
<path d="M108.575 22.5951C108.58 22.3657 108.652 22.1428 108.783 21.9544C108.914 21.766 109.097 21.6204 109.311 21.536C109.524 21.4515 109.757 21.4319 109.982 21.4796C110.206 21.5273 110.412 21.6401 110.572 21.8041C110.733 21.968 110.841 22.1758 110.884 22.4011C110.927 22.6265 110.902 22.8595 110.813 23.071C110.724 23.2825 110.575 23.4629 110.384 23.5898C110.193 23.7167 109.968 23.7842 109.739 23.7841C109.584 23.7832 109.431 23.7516 109.289 23.6912C109.146 23.6309 109.017 23.5428 108.909 23.4323C108.801 23.3217 108.715 23.1908 108.658 23.0471C108.601 22.9034 108.572 22.7498 108.575 22.5951ZM110.575 22.5951C110.566 22.4324 110.509 22.2758 110.412 22.1448C110.315 22.0139 110.182 21.9141 110.029 21.858C109.876 21.8019 109.71 21.7919 109.551 21.8292C109.393 21.8664 109.248 21.9494 109.136 22.0678C109.024 22.1861 108.949 22.3347 108.921 22.4952C108.892 22.6557 108.912 22.8209 108.976 22.9707C109.04 23.1204 109.147 23.2479 109.283 23.3376C109.419 23.4272 109.579 23.4751 109.742 23.4751C109.854 23.472 109.965 23.4468 110.067 23.4008C110.17 23.3549 110.262 23.2892 110.339 23.2074C110.417 23.1257 110.477 23.0295 110.517 22.9244C110.557 22.8193 110.575 22.7074 110.572 22.5951H110.575Z" fill="#111A41"/>
<path d="M111.497 21.4526H111.83V21.7376C111.872 21.6755 111.923 21.6197 111.982 21.5716C112.122 21.4628 112.294 21.4043 112.472 21.4056C112.681 21.3997 112.886 21.4708 113.047 21.6056C113.112 21.6619 113.167 21.7296 113.209 21.8056C113.254 21.7283 113.314 21.6604 113.385 21.6056C113.559 21.471 113.774 21.4004 113.994 21.4056C114.118 21.4028 114.242 21.4268 114.356 21.4761C114.47 21.5254 114.573 21.5988 114.656 21.6912C114.74 21.7837 114.802 21.893 114.84 22.0118C114.877 22.1306 114.888 22.2561 114.873 22.3796V23.7346H114.54V22.3796C114.54 21.9426 114.307 21.7146 113.97 21.7146C113.878 21.7216 113.789 21.7471 113.708 21.7896C113.627 21.8321 113.555 21.8907 113.497 21.9618C113.439 22.0329 113.397 22.1151 113.372 22.2032C113.347 22.2914 113.34 22.3837 113.352 22.4746V23.7346H113.019V22.3796C113.019 21.9476 112.786 21.7146 112.448 21.7146C112.356 21.7216 112.267 21.7471 112.186 21.7896C112.105 21.8321 112.033 21.8907 111.975 21.9618C111.917 22.0329 111.875 22.1151 111.85 22.2032C111.825 22.2914 111.818 22.3837 111.83 22.4746V23.7346H111.497V21.4526Z" fill="#111A41"/>
<path d="M117.557 23.3063C117.489 23.3975 117.407 23.4778 117.315 23.5443C117.11 23.6971 116.862 23.7806 116.606 23.7823C116.301 23.7704 116.012 23.6415 115.799 23.4224C115.586 23.2033 115.466 22.9107 115.462 22.6052C115.459 22.2998 115.574 22.0049 115.782 21.7815C115.991 21.5581 116.277 21.4234 116.582 21.4053C116.73 21.4038 116.877 21.4325 117.013 21.4899C117.15 21.5473 117.273 21.6322 117.376 21.7391C117.478 21.846 117.558 21.9728 117.609 22.1116C117.661 22.2505 117.684 22.3984 117.676 22.5463C117.675 22.5877 117.67 22.6288 117.662 22.6693L117.652 22.7173H115.798C115.813 22.9221 115.905 23.1137 116.054 23.2545C116.204 23.3953 116.401 23.4752 116.606 23.4783C116.804 23.4776 116.997 23.4107 117.153 23.2883C117.224 23.2332 117.288 23.1694 117.343 23.0983L117.557 23.3063ZM117.343 22.4273C117.327 22.2352 117.241 22.0558 117.1 21.924C116.959 21.7921 116.775 21.7174 116.582 21.7143C116.388 21.7204 116.202 21.7955 116.058 21.9262C115.915 22.0569 115.822 22.2346 115.798 22.4273H117.343Z" fill="#111A41"/>
<path d="M118.269 21.4526H118.602V21.7856C118.652 21.7134 118.713 21.6493 118.783 21.5956C118.923 21.4882 119.091 21.4233 119.267 21.4085C119.443 21.3937 119.62 21.4297 119.776 21.5123C119.932 21.5948 120.061 21.7204 120.148 21.8741C120.235 22.0279 120.276 22.2033 120.266 22.3796V23.7346H119.933V22.3796C119.941 22.2943 119.931 22.2083 119.903 22.1272C119.875 22.0461 119.831 21.9717 119.773 21.9089C119.714 21.8462 119.644 21.7964 119.565 21.7629C119.486 21.7295 119.401 21.713 119.315 21.7146C119.217 21.7139 119.12 21.7336 119.03 21.7722C118.94 21.8107 118.859 21.8675 118.792 21.9388C118.726 22.0102 118.674 22.0946 118.641 22.1868C118.609 22.279 118.595 22.377 118.602 22.4746V23.7346H118.269V21.4526Z" fill="#111A41"/>
<path d="M121.168 21.7614H120.74V21.4523H121.001C121.13 21.4523 121.192 21.3713 121.192 21.2143V20.6953H121.501V21.4563H122.001V21.7653H121.501V23.1203C121.501 23.3633 121.62 23.4773 121.81 23.4773C121.884 23.4775 121.958 23.4664 122.029 23.4443C122.062 23.4293 122.095 23.4203 122.119 23.4063V23.7143C122.09 23.7293 122.057 23.7383 122.019 23.7533C121.945 23.7755 121.868 23.7866 121.791 23.7863C121.703 23.7933 121.615 23.7805 121.533 23.749C121.451 23.7174 121.377 23.6678 121.317 23.6039C121.257 23.54 121.212 23.4633 121.185 23.3796C121.158 23.2959 121.151 23.2073 121.163 23.1203L121.168 21.7614Z" fill="#111A41"/>
<path d="M71.5308 15.6405C70.4295 15.6418 69.3428 15.3902 68.3541 14.9052C67.3655 14.4201 66.5014 13.7145 65.8285 12.8428C65.1556 11.9711 64.6919 10.9564 64.473 9.87715C64.2541 8.79789 64.2859 7.68282 64.566 6.61781C64.8462 5.55281 65.3672 4.56635 66.0887 3.73445C66.8103 2.90255 67.7132 2.24744 68.7279 1.8196C69.7426 1.39176 70.842 1.2026 71.9414 1.26674C73.0408 1.33088 74.1108 1.64659 75.0688 2.18953C73.8616 1.11289 72.3686 0.408414 70.77 0.161088C69.1714 -0.0862365 67.5354 0.134139 66.0592 0.79561C64.583 1.45708 63.3297 2.53142 62.4503 3.88912C61.5709 5.24681 61.103 6.82991 61.103 8.44753C61.103 10.0651 61.5709 11.6482 62.4503 13.0059C63.3297 14.3636 64.583 15.438 66.0592 16.0994C67.5354 16.7609 69.1714 16.9813 70.77 16.734C72.3686 16.4866 73.8616 15.7822 75.0688 14.7055C73.9907 15.319 72.7713 15.6413 71.5308 15.6405Z" fill="#F8B441"/>
<path d="M0.000841777 8.41823C-0.0152644 7.28737 0.199908 6.16514 0.633166 5.12044C1.06642 4.07574 1.70854 3.13059 2.52025 2.34304C3.33196 1.55549 4.29607 0.942172 5.35338 0.540669C6.41069 0.139166 7.53895 -0.0420608 8.66881 0.00819843C9.7892 -0.0362239 10.9064 0.155396 11.948 0.570576C12.9896 0.985757 13.9322 1.61526 14.7148 2.41823L13.6048 3.52822C12.97 2.88093 12.2075 2.3725 11.366 2.03512C10.5244 1.69773 9.622 1.53873 8.71581 1.5682C6.89908 1.5682 5.1568 2.28992 3.87218 3.57454C2.58756 4.85917 1.86583 6.6015 1.86583 8.41823C1.86583 10.235 2.58756 11.9773 3.87218 13.2619C5.1568 14.5465 6.89908 15.2682 8.71581 15.2682C9.62418 15.2987 10.5288 15.138 11.3711 14.7963C12.2133 14.4547 12.9744 13.9399 13.6048 13.2852L14.7148 14.3952C13.93 15.2034 12.984 15.8377 11.9383 16.2568C10.8926 16.6759 9.77053 16.8706 8.64476 16.8282C7.51687 16.8751 6.39126 16.6914 5.33678 16.2884C4.2823 15.8854 3.32118 15.2715 2.51207 14.4843C1.70297 13.6971 1.06288 12.7532 0.631091 11.7102C0.199299 10.6671 -0.0150938 9.54699 0.000841777 8.41823Z" fill="#111A41"/>
<path d="M28.2627 16.6834L24.4836 11.3704C24.0446 11.4182 23.6034 11.442 23.1617 11.4414H18.7217V16.6834H16.9727V0.151367H23.1617C27.3617 0.151367 29.9156 2.27637 29.9156 5.82037C29.9728 6.98734 29.6292 8.13879 28.9418 9.08356C28.2544 10.0283 27.2646 10.7096 26.1367 11.0144L30.1757 16.6834H28.2627ZM28.1687 5.82037C28.1687 3.17437 26.4206 1.66241 23.1136 1.66241H18.7217V9.95337H23.1136C26.4206 9.95337 28.1687 8.41837 28.1687 5.82037Z" fill="#111A41"/>
<path d="M44.8907 15.2026V16.7136H33.1987V0.181641H44.5356V1.69562H34.9467V7.57666H43.4957V9.06464H34.9467V15.2056L44.8907 15.2026Z" fill="#111A41"/>
<path d="M47.5376 14.4465L47.8685 14.1385C48.5784 14.8595 49.429 15.4269 50.3674 15.8054C51.3059 16.1839 52.3121 16.3653 53.3236 16.3385C56.9136 16.3385 58.5236 14.6854 58.5236 12.6544C58.5236 7.10445 48.0145 10.3625 48.0145 4.2695C48.0145 2.0965 49.6665 0.111477 53.5405 0.111477C55.2593 0.101121 56.9381 0.629947 58.3406 1.6235L58.0796 2.00247C56.7602 1.06983 55.1853 0.566669 53.5696 0.56149C50.0966 0.56149 48.4916 2.23845 48.4916 4.29245C48.4916 9.86545 59.0006 6.67745 59.0006 12.6544C59.0006 14.8544 57.2766 16.7875 53.3566 16.7875C52.2769 16.8255 51.2012 16.6368 50.199 16.2335C49.1967 15.8303 48.2902 15.2216 47.5376 14.4465Z" fill="#111A41"/>
<path d="M89.0797 16.2354V16.6834H78.0737V0.151367H88.7247V0.599365H78.5468V8.06238H87.6627V8.51239H78.5468V16.2354H89.0797Z" fill="#111A41"/>
<path d="M105.703 0.166016V16.695H105.303L93.1858 1.03705V16.695H92.7139V0.166016H93.1138L105.23 15.826V0.166016H105.703Z" fill="#111A41"/>
<path d="M115.59 0.595459H109.449V0.147461H122.203V0.595459H116.063V16.6794H115.59V0.595459Z" fill="#111A41"/>
</svg>
