<svg width="112" height="112" viewBox="0 0 112 112" fill="none" xmlns="http://www.w3.org/2000/svg">
<path d="M104.19 29.068L39.1642 2.89727C35.1884 1.29715 30.6682 3.22299 29.0681 7.1988L2.89738 72.225C1.29726 76.2008 3.22313 80.721 7.19894 82.3211L72.2251 108.492C76.2009 110.092 80.7211 108.166 82.3212 104.19L108.492 39.164C110.092 35.1882 108.166 30.6681 104.19 29.068Z" fill="#02E6B5"/>
<path d="M44.5043 63.9574C51.5559 63.9574 57.2723 58.241 57.2723 51.1894C57.2723 44.1378 51.5559 38.4214 44.5043 38.4214C37.4527 38.4214 31.7363 44.1378 31.7363 51.1894C31.7363 58.241 37.4527 63.9574 44.5043 63.9574Z" fill="white" stroke="#231F20" stroke-width="2" stroke-miterlimit="10"/>
<path d="M44.5041 51.1918C46.4032 46.4731 45.2912 41.5807 42.0204 40.2643C38.7496 38.9479 34.5585 41.706 32.6593 46.4248C30.7602 51.1435 31.8723 56.0359 35.1431 57.3523C38.4139 58.6687 42.6049 55.9105 44.5041 51.1918Z" fill="#231F20" stroke="#231F20" stroke-width="2" stroke-miterlimit="10"/>
<path d="M66.8881 72.9666C73.9397 72.9666 79.6561 67.2502 79.6561 60.1986C79.6561 53.147 73.9397 47.4307 66.8881 47.4307C59.8366 47.4307 54.1201 53.147 54.1201 60.1986C54.1201 67.2502 59.8366 72.9666 66.8881 72.9666Z" fill="white" stroke="#231F20" stroke-width="2" stroke-miterlimit="10"/>
<path d="M67.0511 59.8235C68.9484 55.1032 67.834 50.2105 64.5621 48.8954C61.2901 47.5803 57.0997 50.3407 55.2024 55.061C53.3051 59.7813 54.4195 64.674 57.6914 65.9891C60.9633 67.3043 65.1538 64.5438 67.0511 59.8235Z" fill="#231F20" stroke="#231F20" stroke-width="2.00031" stroke-miterlimit="10"/>
</svg>
