<svg width="194" height="175" viewBox="0 0 194 175" fill="none" xmlns="http://www.w3.org/2000/svg">
<path d="M182.606 116.222L85.4126 91.3612C79.414 89.8269 73.3074 93.4458 71.7731 99.4443L63.0189 133.668C61.4845 139.667 65.1035 145.774 71.102 147.308L168.296 172.169C174.294 173.703 180.401 170.085 181.935 164.086L190.689 129.862C192.224 123.863 188.605 117.757 182.606 116.222Z" fill="#02E6B5"/>
<path d="M178.29 105.278L81.0962 80.4166C75.0976 78.8823 68.991 82.5012 67.4567 88.4997L58.9639 121.702C57.4296 127.7 61.0485 133.807 67.047 135.341L164.241 160.202C170.239 161.737 176.346 158.118 177.88 152.119L186.373 118.917C187.907 112.919 184.288 106.812 178.29 105.278Z" fill="#9853E8"/>
<path d="M79.9819 96.5552L97.1989 100.955L96.0179 105.575L84.0859 102.523L82.7339 107.807L93.6689 110.607L92.5559 114.96L81.6199 112.16L80.2849 117.379L92.2169 120.431L91.0359 125.051L73.8179 120.651L79.9819 96.5552Z" fill="white"/>
<path d="M95.1235 126.102L101.288 102.002L106.573 103.354L100.409 127.454L95.1235 126.102Z" fill="white"/>
<path d="M127.477 113.555L120.564 111.786L115.564 131.33L110.245 129.97L115.245 110.426L108.333 108.658L109.497 104.105L128.642 109.005L127.477 113.555Z" fill="white"/>
<path d="M131.9 109.835L149.116 114.235L147.934 118.855L136.002 115.803L134.65 121.087L145.585 123.887L144.471 128.241L133.537 125.441L132.202 130.659L144.134 133.712L142.952 138.332L125.736 133.932L131.9 109.835Z" fill="white"/>
<path d="M168.246 144.806L161.765 143.148L157.209 133.129L154.451 132.424L152.325 140.733L147.04 139.381L153.204 115.281L164.638 118.205C170.355 119.668 172.646 123.724 171.506 128.178C171.13 130.011 170.072 131.633 168.546 132.715C167.02 133.797 165.14 134.26 163.286 134.008L168.246 144.806ZM161.194 129.615C163.687 130.252 165.332 129.222 165.859 127.16C166.42 124.967 165.18 123.446 162.92 122.867L157.27 121.422L155.544 128.169L161.194 129.615Z" fill="white"/>
<path d="M60.6376 105.254C48.3986 107.842 36.1376 110.354 23.9266 113.054C22.6355 113.346 21.2989 113.377 19.9956 113.146C18.6922 112.914 17.4484 112.424 16.3372 111.704C15.226 110.985 14.2698 110.051 13.5249 108.956C12.78 107.862 12.2614 106.63 11.9996 105.332C8.18359 86.756 4.19959 68.215 0.273588 49.661C-0.0346865 48.4005 -0.0830227 47.0904 0.131525 45.8106C0.346073 44.5308 0.819012 43.3081 1.52151 42.217C2.22401 41.1259 3.14134 40.1893 4.2176 39.4643C5.29387 38.7393 6.50651 38.2411 7.78159 38C26.3876 34.048 44.9973 30.1147 63.6106 26.2C64.8861 25.89 66.2117 25.8454 67.5052 26.0689C68.7987 26.2923 70.0325 26.7792 71.13 27.4992C72.2276 28.2191 73.1656 29.1569 73.8857 30.2544C74.6059 31.3519 75.0929 32.5856 75.3166 33.879C77.7053 45.1717 80.0929 56.465 82.4796 67.759C82.9706 70.081 82.1556 71.331 79.8336 71.822L39.7766 80.289C37.3996 80.789 36.1516 79.989 35.6526 77.62C34.7999 73.5867 33.9486 69.5534 33.0986 65.52C32.6226 63.239 33.4406 62.013 35.7346 61.528C42.8013 60.0334 49.8679 58.5404 56.9346 57.049C57.8686 56.849 58.8566 56.6421 59.3066 55.7351C59.6654 55.0436 59.8378 54.2704 59.8066 53.492C59.6484 52.2512 59.4015 51.0234 59.0676 49.818C58.9965 49.4319 58.8464 49.0647 58.6266 48.7393C58.4068 48.414 58.1222 48.1376 57.7905 47.9276C57.4588 47.7175 57.0873 47.5783 56.6993 47.5187C56.3112 47.459 55.915 47.4802 55.5356 47.581C45.0196 49.799 34.5046 52.0214 23.9906 54.2481C23.5852 54.2987 23.1956 54.4368 22.8488 54.6527C22.502 54.8687 22.2062 55.1574 21.9819 55.4988C21.7576 55.8403 21.6101 56.2264 21.5496 56.6304C21.4891 57.0345 21.5171 57.4469 21.6316 57.8391C23.8469 68.3851 26.0743 78.9277 28.3136 89.467C28.3814 89.8547 28.5291 90.224 28.7474 90.5514C28.9657 90.8788 29.2497 91.1572 29.5815 91.3688C29.9133 91.5805 30.2855 91.7208 30.6744 91.7807C31.0633 91.8407 31.4605 91.819 31.8406 91.717C33.4056 91.427 34.9576 91.068 36.5146 90.739L91.0076 79.22C93.5076 78.69 94.3006 77.488 93.7776 75.015C90.9576 61.663 88.1369 48.3107 85.3156 34.958C84.8236 32.63 85.6436 31.364 87.9446 30.876C92.0056 30.016 96.0796 29.212 100.124 28.276C100.558 28.1535 101.013 28.1258 101.459 28.1946C101.905 28.2634 102.331 28.4272 102.708 28.6748C103.085 28.9225 103.405 29.2482 103.645 29.63C103.886 30.0118 104.041 30.4409 104.102 30.888C107.092 45.309 110.163 59.713 113.209 74.122C113.669 76.3 112.857 77.5651 110.682 78.0291C107.567 78.6941 104.449 79.342 101.336 80.01C98.9826 80.51 98.1756 81.798 98.6796 84.159C99.3396 87.2457 99.9939 90.333 100.643 93.421C101.099 95.593 100.265 96.882 98.1136 97.336C85.6196 99.976 73.1276 102.615 60.6376 105.254Z" fill="#02E6B5"/>
<path d="M99.4256 8.94104C99.8776 11.081 100.336 13.22 100.781 15.361C100.886 15.739 100.91 16.1349 100.852 16.5228C100.794 16.9108 100.654 17.2821 100.442 17.6124C100.231 17.9428 99.9518 18.2247 99.6238 18.4399C99.2957 18.655 98.926 18.7986 98.5387 18.861C94.2053 19.7904 89.8696 20.7053 85.5316 21.606C85.1527 21.713 84.7554 21.7385 84.3658 21.6807C83.9763 21.623 83.6035 21.4834 83.2718 21.2711C82.9402 21.0588 82.6573 20.7786 82.4418 20.449C82.2263 20.1195 82.0831 19.7479 82.0216 19.359C81.0756 15.0297 80.158 10.6963 79.2686 6.35901C79.1656 5.9721 79.1458 5.5677 79.2108 5.1726C79.2757 4.77751 79.4239 4.40074 79.6454 4.0672C79.8669 3.73365 80.1567 3.45096 80.4957 3.23785C80.8347 3.02474 81.2151 2.88604 81.6117 2.83099C85.8897 1.92032 90.1693 1.01567 94.4506 0.117001C94.8475 -0.000829406 95.2653 -0.0301017 95.6747 0.0311858C96.0841 0.0924734 96.4751 0.242863 96.82 0.471738C97.165 0.700612 97.4555 1.00237 97.671 1.35577C97.8866 1.70917 98.022 2.10559 98.0676 2.51703C98.5216 4.65969 98.9743 6.80104 99.4256 8.94104Z" fill="#9853E8"/>
</svg>
