<svg width="125" height="125" viewBox="0 0 125 125" fill="none" xmlns="http://www.w3.org/2000/svg">
<path d="M116.483 32.4975L43.785 3.23911C39.3401 1.4502 34.2866 3.60328 32.4977 8.04817L3.23932 80.7464C1.45041 85.1913 3.60354 90.2447 8.04843 92.0336L80.7466 121.292C85.1915 123.081 90.245 120.928 92.0339 116.483L121.292 43.7848C123.081 39.3399 120.928 34.2864 116.483 32.4975Z" fill="#02E6B5"/>
<path d="M49.5312 71.8262C57.2633 71.8262 63.5312 65.3343 63.5312 57.3262C63.5312 49.318 57.2633 42.8262 49.5312 42.8262C41.7992 42.8262 35.5312 49.318 35.5312 57.3262C35.5312 65.3343 41.7992 71.8262 49.5312 71.8262Z" fill="white" stroke="#231F20" stroke-width="2" stroke-miterlimit="10"/>
<path d="M63.0001 62.5578C65.1233 57.2823 63.8801 51.8127 60.2233 50.341C56.5666 48.8693 51.8811 51.9528 49.7579 57.2283C47.6347 62.5037 48.8779 67.9733 52.5347 69.445C56.1914 70.9167 60.8769 67.8332 63.0001 62.5578Z" fill="#231F20" stroke="#231F20" stroke-width="2" stroke-miterlimit="10"/>
<path d="M75.0313 81.8262C83.0394 81.8262 89.5312 75.3343 89.5312 67.3262C89.5312 59.318 83.0394 52.8262 75.0313 52.8262C67.0232 52.8262 60.5312 59.318 60.5312 67.3262C60.5312 75.3343 67.0232 81.8262 75.0313 81.8262Z" fill="white" stroke="#231F20" stroke-width="2" stroke-miterlimit="10"/>
<path d="M74.7838 67.3003C76.907 62.0249 75.6638 56.5553 72.0071 55.0836C68.3504 53.6119 63.6648 56.6954 61.5417 61.9708C59.4185 67.2463 60.6616 72.716 64.3184 74.1877C67.9751 75.6594 72.6607 72.5758 74.7838 67.3003Z" fill="#231F20" stroke="#231F20" stroke-width="2" stroke-miterlimit="10"/>
</svg>
