<svg width="36" height="33" viewBox="0 0 36 33" fill="none" xmlns="http://www.w3.org/2000/svg">
<path d="M16.1231 32.4711C11.8861 32.4711 7.64815 32.4431 3.41115 32.4831C2.96287 32.4895 2.51783 32.4062 2.1022 32.2381C1.68658 32.0701 1.30876 31.8206 0.990953 31.5044C0.673148 31.1881 0.421771 30.8116 0.251619 30.3968C0.0814659 29.982 -0.0040325 29.5374 0.000146093 29.0891C0.0361461 22.6661 0.014146 16.2421 0.014146 9.81908C0.000214333 9.38018 0.0757579 8.94303 0.236177 8.53426C0.396595 8.12548 0.638534 7.75364 0.947259 7.44136C1.25598 7.12908 1.62503 6.8829 2.03195 6.71781C2.43886 6.55272 2.87511 6.47218 3.31415 6.48109C9.75748 6.47375 16.2001 6.47375 22.6421 6.48109C23.0865 6.46763 23.5289 6.54561 23.9418 6.7102C24.3548 6.8748 24.7295 7.12249 25.0428 7.43792C25.3561 7.75334 25.6012 8.12977 25.7629 8.54385C25.9247 8.95793 25.9997 9.40084 25.9831 9.84508C25.9831 13.7551 25.9831 17.6647 25.9831 21.5741C25.9831 22.3741 25.6261 22.7351 24.8221 22.7351H10.9591C10.1361 22.7351 9.77915 22.3801 9.77915 21.5621C9.77915 20.1621 9.77915 18.7691 9.77915 17.3731C9.77915 16.5831 10.1391 16.2351 10.9331 16.2341H18.2731C18.4303 16.2606 18.5915 16.2501 18.744 16.2034C18.8964 16.1567 19.0358 16.0751 19.1511 15.9651C19.3181 15.7607 19.4287 15.5163 19.4721 15.2561C19.507 14.8339 19.5114 14.4098 19.4851 13.9871C19.4886 13.8541 19.4646 13.7219 19.4145 13.5986C19.3645 13.4754 19.2895 13.3639 19.1943 13.271C19.0991 13.1781 18.9857 13.1059 18.8612 13.059C18.7368 13.012 18.604 12.9913 18.4711 12.9981C14.8311 12.9981 11.1911 12.9981 7.55115 12.9981C7.41319 12.9864 7.27433 13.0048 7.14418 13.052C7.01403 13.0993 6.8957 13.1743 6.79736 13.2717C6.69903 13.3692 6.62305 13.4869 6.57467 13.6166C6.52629 13.7463 6.50666 13.885 6.51714 14.0231C6.51314 17.6731 6.51314 21.3228 6.51714 24.9721C6.51251 25.1052 6.53565 25.2379 6.58507 25.3616C6.63449 25.4853 6.70912 25.5974 6.80422 25.6907C6.89931 25.784 7.01278 25.8565 7.13741 25.9036C7.26205 25.9506 7.39511 25.9712 7.52815 25.9641C8.06715 25.9781 8.60715 25.9641 9.14615 25.9641H28.0111C28.8771 25.9641 29.2231 25.6211 29.2231 24.7641C29.2231 20.1421 29.2231 15.5198 29.2231 10.8971C29.2231 10.0911 29.5832 9.72909 30.3802 9.72909C31.7862 9.72909 33.1921 9.74708 34.5981 9.72108C34.7506 9.71076 34.9036 9.73334 35.0466 9.78731C35.1896 9.84127 35.3193 9.92535 35.4269 10.0339C35.5346 10.1424 35.6176 10.2727 35.6705 10.4162C35.7233 10.5596 35.7447 10.7127 35.7331 10.8651C35.7141 15.8531 35.7231 20.8421 35.7221 25.8301C35.746 25.9817 35.7338 26.1369 35.6865 26.2829C35.6393 26.429 35.5583 26.5618 35.4501 26.6707C35.3418 26.7796 35.2095 26.8615 35.0637 26.9096C34.918 26.9578 34.7629 26.971 34.6111 26.9481C33.5331 26.9481 32.4541 26.9481 31.3761 26.9481C30.5611 26.9481 30.2031 27.3191 30.2051 28.1371C30.2051 29.2038 30.2051 30.2728 30.2051 31.3441C30.2279 31.4958 30.2149 31.6507 30.1671 31.7965C30.1193 31.9423 30.0381 32.0749 29.93 32.1837C29.8219 32.2925 29.6898 32.3745 29.5443 32.4232C29.3988 32.4719 29.244 32.4859 29.0921 32.4641L16.1231 32.4711Z" fill="#02E6B5"/>
<path d="M35.7232 3.27108C35.7232 4.01208 35.7232 4.75308 35.7232 5.49408C35.7312 5.62647 35.7112 5.75906 35.6646 5.88322C35.6179 6.00738 35.5456 6.12031 35.4524 6.21466C35.3592 6.30901 35.2472 6.38265 35.1236 6.4308C35 6.47894 34.8677 6.50051 34.7352 6.49408C33.2338 6.49875 31.7338 6.49875 30.2352 6.49408C30.102 6.50303 29.9685 6.48364 29.8434 6.43721C29.7183 6.39077 29.6045 6.31835 29.5094 6.2247C29.4144 6.13106 29.3402 6.01833 29.2919 5.89394C29.2436 5.76955 29.2222 5.63634 29.2292 5.50308C29.2192 4.00241 29.2192 2.50241 29.2292 1.00308C29.2226 0.868041 29.2448 0.733149 29.2942 0.607303C29.3436 0.481457 29.4191 0.367519 29.5158 0.273013C29.6125 0.178508 29.7281 0.105585 29.855 0.0590547C29.982 0.0125243 30.1173 -0.0065568 30.2522 0.00307782C31.7342 0.00307782 33.2158 0.00307782 34.6972 0.00307782C34.837 -0.00815926 34.9776 0.0114579 35.1091 0.0605424C35.2405 0.109627 35.3596 0.18698 35.4578 0.287135C35.5561 0.387291 35.6311 0.50781 35.6777 0.640163C35.7242 0.772515 35.7411 0.913474 35.7272 1.05308C35.7232 1.79008 35.7222 2.53008 35.7232 3.27108Z" fill="#9853E8"/>
</svg>
