<svg width="97" height="86" viewBox="0 0 97 86" fill="none" xmlns="http://www.w3.org/2000/svg">
<path d="M12.4914 85.615H72.7994C75.7273 85.6148 78.5621 84.5857 80.8082 82.7076C83.0543 80.8294 84.569 78.2217 85.0874 75.34L95.9994 14.7C96.3236 12.9015 96.2491 11.0538 95.781 9.28729C95.313 7.52078 94.4628 5.87854 93.2906 4.47656C92.1183 3.07458 90.6526 1.94703 88.9969 1.17352C87.3412 0.40002 85.5359 -0.000593008 83.7084 6.58849e-07L23.1274 0.0150153C20.1899 0.0143291 17.3462 1.04945 15.0965 2.93829C12.8468 4.82714 11.3352 7.44875 10.8274 10.342L0.188435 70.968C-0.127095 72.7636 -0.0456088 74.6065 0.427205 76.3672C0.900018 78.1279 1.75268 79.7638 2.92525 81.1597C4.09783 82.5557 5.56185 83.678 7.2145 84.4477C8.86715 85.2174 10.6683 85.6158 12.4914 85.615Z" fill="#02E6B5"/>
<path d="M59.4955 55.5692C66.5471 55.5692 72.2635 49.8528 72.2635 42.8012C72.2635 35.7496 66.5471 30.0332 59.4955 30.0332C52.444 30.0332 46.7275 35.7496 46.7275 42.8012C46.7275 49.8528 52.444 55.5692 59.4955 55.5692Z" fill="white" stroke="#231F20" stroke-width="2" stroke-miterlimit="10"/>
<path d="M65.8796 52.0118C69.4054 52.0118 72.2636 47.8883 72.2636 42.8018C72.2636 37.7152 69.4054 33.5918 65.8796 33.5918C62.3538 33.5918 59.4956 37.7152 59.4956 42.8018C59.4956 47.8883 62.3538 52.0118 65.8796 52.0118Z" fill="#231F20" stroke="#231F20" stroke-width="2" stroke-miterlimit="10"/>
<path d="M35.3676 55.5692C42.4192 55.5692 48.1356 49.8528 48.1356 42.8012C48.1356 35.7496 42.4192 30.0332 35.3676 30.0332C28.316 30.0332 22.5996 35.7496 22.5996 42.8012C22.5996 49.8528 28.316 55.5692 35.3676 55.5692Z" fill="white" stroke="#231F20" stroke-width="2" stroke-miterlimit="10"/>
<path d="M41.7516 52.0118C45.2774 52.0118 48.1356 47.8883 48.1356 42.8018C48.1356 37.7152 45.2774 33.5918 41.7516 33.5918C38.2259 33.5918 35.3677 37.7152 35.3677 42.8018C35.3677 47.8883 38.2259 52.0118 41.7516 52.0118Z" fill="#231F20" stroke="#231F20" stroke-width="2" stroke-miterlimit="10"/>
</svg>
