<svg width="21" height="21" viewBox="0 0 21 21" fill="none" xmlns="http://www.w3.org/2000/svg">
<path d="M2.11899 2.11832C1.10718 3.13016 0.418152 4.41934 0.139007 5.82278C-0.140138 7.22623 0.00314337 8.68092 0.55075 10.0029C1.09836 11.3249 2.02576 12.4549 3.21555 13.2499C4.40533 14.0449 5.80402 14.4692 7.23495 14.4692C8.66589 14.4692 10.0647 14.0449 11.2545 13.2499C12.4443 12.4549 13.3717 11.3249 13.9193 10.0029C14.4669 8.68092 14.6102 7.22623 14.331 5.82278C14.0519 4.41934 13.3629 3.13016 12.351 2.11832C10.994 0.76193 9.15367 0 7.23495 0C5.31624 0 3.47608 0.76193 2.11899 2.11832ZM10.625 10.6243C9.95462 11.2945 9.10059 11.7509 8.17087 11.9358C7.24114 12.1207 6.27758 12.0257 5.40182 11.6629C4.52607 11.3001 3.77757 10.6858 3.25095 9.89758C2.72433 9.1094 2.44321 8.18276 2.44321 7.23483C2.44321 6.28691 2.72433 5.36027 3.25095 4.57208C3.77757 3.7839 4.52607 3.16956 5.40182 2.80676C6.27758 2.44396 7.24114 2.34898 8.17087 2.53384C9.10059 2.71871 9.95462 3.17512 10.625 3.84534C11.0701 4.29042 11.4233 4.81885 11.6643 5.40042C11.9052 5.982 12.0291 6.60533 12.0291 7.23483C12.0291 7.86434 11.9052 8.48767 11.6643 9.06924C11.4233 9.65082 11.0701 10.1792 10.625 10.6243Z" fill="#9853E8"/>
<path d="M12.4806 11.1049L10.7085 12.877L18.8402 21.0087L20.6123 19.2366L12.4806 11.1049Z" fill="#9853E8"/>
</svg>
