<svg width="21" height="21" viewBox="0 0 21 21" fill="none" xmlns="http://www.w3.org/2000/svg">
<path d="M11.29 5.82565L20.0721 0.327637L20.2631 10.3947L11.29 5.82565Z" fill="#9853E8"/>
<path d="M17.5721 12.4787C17.0192 14.1755 15.9112 15.6366 14.4265 16.6267C12.9418 17.6168 11.1669 18.0781 9.38801 17.9364C7.6091 17.7946 5.92978 17.058 4.62061 15.8453C3.31144 14.6326 2.44868 13.0144 2.17145 11.2516C1.89422 9.48868 2.21864 7.68383 3.09241 6.12784C3.96618 4.57185 5.33845 3.35537 6.98798 2.67447C8.63751 1.99357 10.4682 1.88788 12.1851 2.37448C13.902 2.86108 15.4052 3.91162 16.4522 5.35675L18.2121 4.25674C16.9226 2.4222 15.0549 1.07335 12.9079 0.426209C10.7609 -0.220936 8.45889 -0.128965 6.37037 0.687378C4.28184 1.50372 2.5276 2.99724 1.38855 4.9288C0.249511 6.86036 -0.208484 9.11825 0.0878953 11.341C0.384275 13.5637 1.4179 15.6227 3.02326 17.1883C4.62862 18.7539 6.71287 19.7356 8.94233 19.9762C11.1718 20.2168 13.4175 19.7024 15.3199 18.5153C17.2223 17.3282 18.6714 15.5371 19.4351 13.4287L17.5721 12.4787Z" fill="#9853E8"/>
</svg>
